<svg width="55" height="26" viewBox="0 0 55 26" fill="none" xmlns="http://www.w3.org/2000/svg">
<path d="M2.63594 25.942H53.0047C53.4821 25.942 53.94 25.7524 54.2775 25.4148C54.6151 25.0772 54.8047 24.6194 54.8047 24.142C54.8047 23.6646 54.6151 23.2068 54.2775 22.8692C53.94 22.5316 53.4821 22.342 53.0047 22.342H4.43594V3.6574H53.0047C53.4821 3.6574 53.94 3.46776 54.2775 3.13019C54.6151 2.79263 54.8047 2.33479 54.8047 1.8574C54.8047 1.38001 54.6151 0.922177 54.2775 0.584611C53.94 0.247046 53.4821 0.0574036 53.0047 0.0574036H2.63594C2.15855 0.0574036 1.70071 0.247046 1.36314 0.584611C1.02558 0.922177 0.835938 1.38001 0.835938 1.8574V24.142C0.835938 24.6194 1.02558 25.0772 1.36314 25.4148C1.70071 25.7524 2.15855 25.942 2.63594 25.942Z" fill="white"/>
<path d="M11.9953 14.8H43.6453C43.8817 14.8 44.1158 14.7534 44.3342 14.663C44.5526 14.5725 44.751 14.4399 44.9181 14.2728C45.0853 14.1056 45.2179 13.9072 45.3083 13.6888C45.3988 13.4704 45.4453 13.2364 45.4453 13C45.4453 12.7636 45.3988 12.5296 45.3083 12.3112C45.2179 12.0928 45.0853 11.8944 44.9181 11.7272C44.751 11.5601 44.5526 11.4275 44.3342 11.337C44.1158 11.2466 43.8817 11.2 43.6453 11.2H11.9959C11.7596 11.2 11.5255 11.2466 11.3071 11.337C11.0887 11.4275 10.8903 11.5601 10.7231 11.7272C10.556 11.8944 10.4234 12.0928 10.3329 12.3112C10.2425 12.5296 10.1959 12.7636 10.1959 13C10.1959 13.2364 10.2425 13.4704 10.3329 13.6888C10.4234 13.9072 10.556 14.1056 10.7231 14.2728C10.8903 14.4399 11.0887 14.5725 11.3071 14.663C11.5255 14.7534 11.759 14.8 11.9953 14.8Z" fill="white"/>
</svg>
