<svg width="36" height="36" viewBox="0 0 36 36" fill="none" xmlns="http://www.w3.org/2000/svg">
<path d="M30.3148 0H10.0867C7.10462 0 4.67847 2.42615 4.67847 5.4082V6.62657H3.24072C1.95974 6.62657 0.91748 7.66883 0.91748 8.94981C0.91748 10.2309 1.95974 11.2731 3.24072 11.2731H4.67847V15.4248H3.24072C1.95974 15.4248 0.91748 16.4671 0.91748 17.748C0.91748 19.029 1.95974 20.0713 3.24072 20.0713H4.67847V24.223H3.24072C1.95974 24.223 0.91748 25.2652 0.91748 26.5462C0.91748 27.8273 1.95974 28.8695 3.24072 28.8695H4.67847V30.0879C4.67847 33.0699 7.10462 35.4961 10.0867 35.4961H30.3148C33.2968 35.4961 35.723 33.0699 35.723 30.0879V5.4082C35.723 2.42615 33.2968 0 30.3148 0ZM2.13623 8.94981C2.13623 8.34082 2.63173 7.84532 3.24072 7.84532H7.33496C7.94395 7.84532 8.43945 8.34082 8.43945 8.94989C8.43945 9.55889 7.94395 10.0544 7.33496 10.0544H3.24072C2.63173 10.0544 2.13623 9.55888 2.13623 8.94981ZM2.13623 17.748C2.13623 17.1391 2.63173 16.6436 3.24072 16.6436H7.33496C7.94395 16.6436 8.43945 17.1391 8.43945 17.748C8.43945 18.357 7.94395 18.8525 7.33496 18.8525H3.24072C2.63173 18.8525 2.13623 18.357 2.13623 17.748ZM2.13623 26.5462C2.13623 25.9372 2.63173 25.4417 3.24072 25.4417H7.33496C7.94395 25.4417 8.43945 25.9372 8.43945 26.5463C8.43945 27.1553 7.94395 27.6508 7.33496 27.6508H3.24072C2.63173 27.6508 2.13623 27.1553 2.13623 26.5462ZM34.5042 30.0879C34.5042 32.398 32.6249 34.2773 30.3148 34.2773H10.0867C7.7766 34.2773 5.89722 32.398 5.89722 30.0879V28.8695H7.33496C8.61594 28.8695 9.6582 27.8273 9.6582 26.5463C9.6582 25.2652 8.61594 24.223 7.33496 24.223H5.89722V20.0713H7.33496C8.61594 20.0713 9.6582 19.029 9.6582 17.748C9.6582 16.4671 8.61594 15.4248 7.33496 15.4248H5.89722V11.2731H7.33496C8.61594 11.2731 9.6582 10.2309 9.6582 8.94989C9.6582 7.66883 8.61594 6.62657 7.33496 6.62657H5.89722V5.4082C5.89722 3.09814 7.7766 1.21875 10.0867 1.21875H30.3148C32.6249 1.21875 34.5042 3.09814 34.5042 5.4082V30.0879ZM22.9087 7.76481H21.0736C17.2522 7.76481 15.2168 13.5626 15.2168 17.748C15.2168 21.9335 17.2522 27.7314 21.0736 27.7314H22.9087C24.1636 27.7314 25.1845 26.7104 25.1845 25.4555V22.8673C25.1845 21.6123 24.1636 20.5914 22.9087 20.5914H21.9633C21.2705 19.8046 20.8917 18.8042 20.8917 17.748C20.8917 16.6918 21.2705 15.6915 21.9633 14.9047H22.9087C24.1636 14.9047 25.1845 13.8838 25.1845 12.6289V10.0407C25.1845 8.78574 24.1636 7.76481 22.9087 7.76481ZM23.9658 12.6289C23.9658 13.2117 23.4915 13.686 22.9087 13.686H21.6985C21.6178 13.6859 21.5379 13.702 21.4634 13.7331C21.3889 13.7643 21.3213 13.81 21.2647 13.8675C20.2382 14.9084 19.673 16.2865 19.673 17.748C19.673 19.2096 20.2382 20.5877 21.2647 21.6286C21.3214 21.6861 21.3889 21.7318 21.4634 21.7629C21.5379 21.7941 21.6178 21.8101 21.6985 21.8101H22.9087C23.4915 21.8101 23.9658 22.2844 23.9658 22.8673V25.4555C23.9658 26.0384 23.4915 26.5126 22.9087 26.5126H21.0736C18.2 26.5126 16.4356 21.4078 16.4356 17.748C16.4356 14.0883 18.2 8.98356 21.0736 8.98356H22.9087C23.4915 8.98356 23.9658 9.4578 23.9658 10.0406V12.6289Z" fill="#FFE815"/>
</svg>
