<svg width="29" height="28" viewBox="0 0 29 28" fill="none" xmlns="http://www.w3.org/2000/svg">
<path d="M0.820312 12.7371C0.820313 9.35901 2.16219 6.11928 4.55074 3.73061C6.93929 1.34194 10.1789 0 13.5568 0C16.9347 0 20.1743 1.34194 22.5628 3.73061C24.9514 6.11928 26.2933 9.35901 26.2933 12.7371C26.2933 16.1152 24.9514 19.3549 22.5628 21.7436C20.1743 24.1323 16.9347 25.4742 13.5568 25.4742C10.1789 25.4742 6.93929 24.1323 4.55074 21.7436C2.16219 19.3549 0.820313 16.1152 0.820312 12.7371ZM13.5568 2.06548C10.7266 2.06548 8.0124 3.1898 6.01118 5.19112C4.00996 7.19244 2.88569 9.90681 2.88569 12.7371C2.88569 15.5674 4.00996 18.2818 6.01118 20.2831C8.0124 22.2844 10.7266 23.4087 13.5568 23.4087C16.3869 23.4087 19.1012 22.2844 21.1024 20.2831C23.1036 18.2818 24.2279 15.5674 24.2279 12.7371C24.2279 9.90681 23.1036 7.19244 21.1024 5.19112C19.1012 3.1898 16.3869 2.06548 13.5568 2.06548Z" fill="#B1B4BA"/>
<path d="M8.93173 7.42332C9.53858 6.81525 10.2595 6.33303 11.0532 6.00434C11.8469 5.67564 12.6977 5.50695 13.5568 5.50794C15.3619 5.50794 16.9991 6.24049 18.1819 7.42332C18.3643 7.61909 18.4636 7.87803 18.4589 8.14558C18.4541 8.41313 18.3458 8.6684 18.1565 8.85762C17.9673 9.04683 17.7121 9.15522 17.4445 9.15994C17.177 9.16466 16.9181 9.06535 16.7223 8.88293C16.3071 8.46671 15.8136 8.13673 15.2703 7.91199C14.7271 7.68725 14.1447 7.57218 13.5568 7.57341C12.3203 7.57341 11.2023 8.07326 10.3926 8.8843C10.1969 9.06672 9.93795 9.16604 9.67041 9.16132C9.40288 9.1566 9.14762 9.04821 8.95841 8.859C8.7692 8.66978 8.66082 8.41451 8.6561 8.14696C8.65138 7.87941 8.75069 7.62047 8.93311 7.4247L8.93173 7.42332ZM21.24 20.4207C21.3359 20.3247 21.4498 20.2486 21.5751 20.1966C21.7004 20.1447 21.8348 20.118 21.9704 20.118C22.1061 20.118 22.2404 20.1447 22.3658 20.1966C22.4911 20.2486 22.605 20.3247 22.7009 20.4207L28.5432 26.2632C28.7256 26.459 28.8249 26.7179 28.8202 26.9855C28.8154 27.253 28.7071 27.5083 28.5178 27.6975C28.3286 27.8867 28.0734 27.9951 27.8058 27.9998C27.5383 28.0046 27.2794 27.9052 27.0836 27.7228L21.2414 21.8817C21.048 21.688 20.9393 21.4255 20.9393 21.1519C20.9393 20.8782 21.048 20.6157 21.2414 20.4221L21.24 20.4207Z" fill="#B1B4BA"/>
</svg>
